<svg xmlns="http://www.w3.org/2000/svg" width="235" height="240" viewBox="0 0 235 240">
  <title>leaf</title>
  <g id="Warstwa_2" data-name="Warstwa 2">
    <g id="Warstwa_2-2" data-name="Warstwa 2">
      <path d="M176,240c14.74-1,24.31-6.67,31-15-1.54-33.47-8.21-55.16-17-72-13-22.19-33.3-38-58-50-18-6.66-41.85-15-57-24C61.26,73.72,50.39,65.6,40,57c22.94,11.1,44.41,20.42,62,25,27.65,6.37,50.79,16.32,68,31,31.58,24.55,44.7,54.49,49,87,9.09-5.76,15.34-14.47,16-29,.07-27.17-5.43-49.64-17-67-17.33-28.56-44.81-46-80-55-18.48-6.41-42.27-9.77-68-12C36.12,34.85,13.91,21.43,0,0,4,33,11.39,64.74,23,95c16.07,41.12,34.46,72.21,55,94C105.09,217,137.41,234.69,176,240Z" style="fill: #57b51a"/>
    </g>
  </g>
</svg>
