<svg xmlns="http://www.w3.org/2000/svg" width="235" height="240" viewBox="0 0 235 240">
  <title>Zasób 1</title>
  <g id="Warstwa_2" data-name="Warstwa 2">
    <g id="Warstwa_2-2" data-name="Warstwa 2">
      <path d="M59,240c-14.74-1-24.31-6.67-31-15,1.54-33.47,8.21-55.16,17-72,13-22.19,33.3-38,58-50,18-6.66,41.85-15,57-24,13.74-5.28,24.61-13.4,35-22-22.94,11.1-44.41,20.42-62,25-27.65,6.37-50.79,16.32-68,31-31.58,24.55-44.69,54.49-49,87C6.91,194.24.66,185.53,0,171c-.07-27.17,5.43-49.64,17-67C34.33,75.44,61.81,58,97,49c18.48-6.41,42.27-9.77,68-12,33.88-2.15,56.09-15.57,70-37-4,33-11.38,64.74-23,95-16.07,41.12-34.46,72.21-55,94C129.91,217,97.6,234.69,59,240Z" style="fill: #57b51a"/>
    </g>
  </g>
</svg>
